PathFileType	4	(X/Y/Z)	./motion_analysis/DM_ngait_tm_ss1_new.trc
DataRate	CameraRate	NumFrames	NumMarkers	Units	OrigDataRate	OrigDataStartFrame	OrigNumFrames
120	120	4	68	mm	120	1310	2097
Frame#	Time	Sternum			Neck			R_Shoulder			L_Shoulder			Xiphoid			Thoracic			R_Asis			L_Asis			R_Psis			L_Psis			Lumbar			R_Elbow			R_ElbowMedial			R_ShoulderAnterior			R_ShoulderPosterior			R_Wrist			R_Radius			R_Ulna			L_Elbow			L_ElbowMedial			L_ShoulderAnterior			L_ShoulderPosterior			L_Wrist			L_Ulna			L_Radius			L_Thigh_Superior			L_Thigh_Inferior			L_Thigh_Lateral			L_Knee_Lateral			L_Knee_Medial			L_Patella			L_Shank_Superior			L_Shank_Inferior			L_Shank_Lateral			L_Ankle_Lateral			L_Ankle_Medial			R_Thigh_Superior			R_Thigh_Inferior			R_Thigh_Lateral			R_Knee_Lateral			R_Knee_Medial			R_Patella			R_Shank_Superior			R_Shank_Inferior			R_Shank_Lateral			R_Ankle_Lateral			RankleMedial			R_Heel			R_Toe			R_Midfoot_Medial			R_Midfoot_Lateral			R_Hindfoot			R_Midfoot_Superior			R_ToeMedial			R_ToeLateral			L_Heel			L_Toe			L_Midfoot_Medial			L_Midfoot_Lateral			L_Hindfoot			L_Midfoot_Superior			L_ToeMedial			L_ToeLateral			Oglobal			Sacral			Xglobal			Yglobal			Zglobal			
		X1	Y1	Z1	X2	Y2	Z2	X3	Y3	Z3	X4	Y4	Z4	X5	Y5	Z5	X6	Y6	Z6	X7	Y7	Z7	X8	Y8	Z8	X9	Y9	Z9	X10	Y10	Z10	X11	Y11	Z11	X12	Y12	Z12	X13	Y13	Z13	X14	Y14	Z14	X15	Y15	Z15	X16	Y16	Z16	X17	Y17	Z17	X18	Y18	Z18	X19	Y19	Z19	X20	Y20	Z20	X21	Y21	Z21	X22	Y22	Z22	X23	Y23	Z23	X24	Y24	Z24	X25	Y25	Z25	X26	Y26	Z26	X27	Y27	Z27	X28	Y28	Z28	X29	Y29	Z29	X30	Y30	Z30	X31	Y31	Z31	X32	Y32	Z32	X33	Y33	Z33	X34	Y34	Z34	X35	Y35	Z35	X36	Y36	Z36	X37	Y37	Z37	X38	Y38	Z38	X39	Y39	Z39	X40	Y40	Z40	X41	Y41	Z41	X42	Y42	Z42	X43	Y43	Z43	X44	Y44	Z44	X45	Y45	Z45	X46	Y46	Z46	X47	Y47	Z47	X48	Y48	Z48	X49	Y49	Z49	X50	Y50	Z50	X51	Y51	Z51	X52	Y52	Z52	X53	Y53	Z53	X54	Y54	Z54	X55	Y55	Z55	X56	Y56	Z56	X57	Y57	Z57	X58	Y58	Z58	X59	Y59	Z59	X60	Y60	Z60	X61	Y61	Z61	X62	Y62	Z62	X63	Y63	Z63	X64	Y64	Z64	X65	Y65	Z65	X66	Y66	Z66	X67	Y67	Z67	X68	Y68	Z68	

1311	10.925	-916.088	1343.78	511.091	-766.581	1439.61	490.683	-879.304	1392.62	341.362	-816.2910000000001	1386.82	674.747	-923.713	1179.41	507.25	-660.468	1259.92	487.98	-814.393	955.173	348.543	-818.891	952.4589999999999	623.167	-619.696	1014.45	460.946	-622.756	1011.56	537.376	-625.7619999999999	1062.95	495.921	-972.527	1097.2	245.769	-0	0	0	-0	0	0	-0	0	0	-1175.67	947.14	343.157	-1149.7	938.6609999999999	380.422	-1156.08	921.77	306.886	-708.9349999999999	1066.83	766.89	-0	0	0	-0	0	0	-0	0	0	-708.848	797.259	777.258	-665.904	818.2	785.299	-718.723	811.407	733.449	-808.728	802.047	654.822	-926.958	614.176	593.8680000000001	-935.413	703.9589999999999	571.886	-0	0	0	-0	0	0	-982.506	539.104	529.875	-927.912	461.888	607.981	-894.836	192.64	620.9690000000001	-937.133	315.182	540.991	-0	0	0	-0	0	0	-695.651	777.831	320.417	-662.582	564.737	354.757	-761.336	606.287	396.047	-0	0	0	-0	0	0	-709.5839999999999	443.803	412.382	-0	0	0	-378.878	307.334	339.448	-517.51	334.837	407.897	-0	0	0	-0	0	0	-242.252	298.757	382.212	-368.241	30.0354	392.664	-315.621	89.661	443.138	-305.204	91.8199	326.351	-253.773	190.756	334.401	-364.822	179.408	381.922	-341.224	56.9539	436.24	-335.488	55.6696	343.719	-812.929	75.82850000000001	573.371	-1111.41	72.2191	581.225	-1033.1	49.0837	528.8920000000001	-1019.47	51.3262	642.538	-910.822	43.6553	632.542	-975.439	134.982	579.638	-1075.2	53.1496	536.069	-1073.03	54.7842	633.803	-0	0	0	-621.226	1013.01	499.161	-200	0	0	-0	0	200	-0	200	0	
1312	10.933333	-915.829	1345.9	511.84	-766.439	1441.71	491.52	-879.356	1394.76	342.135	-816.296	1388.69	675.422	-923.736	1179.77	505.395	-660.301	1261.89	488.62	-815.039	956.64	349.998	-818.822	955.144	625.0599999999999	-619.929	1015.9	461.686	-622.801	1013.17	538.287	-625.701	1064.5	496.61	-973.439	1099.65	247.318	-0	0	0	-0	0	0	-0	0	0	-1176.28	947.765	343.164	-1150.34	939.609	380.407	-1156.25	922.603	307.029	-713.369	1067.5	768.482	-0	0	0	-0	0	0	-0	0	0	-717.127	797.861	778.226	-674.073	818.284	787.008	-726.413	812.573	734.843	-807.491	803.245	656.405	-921.799	612.261	595.835	-931.2430000000001	704.491	574.867	-0	0	0	-0	0	0	-978.202	538.114	531.08	-922.139	461.36	608.938	-886.023	192.496	621.026	-929.691	314.655	541.316	-0	0	0	-0	0	0	-699.968	778.622	321.84	-671.078	564.9109999999999	355.649	-768.668	608.367	397.38	-0	0	0	-0	0	0	-719.64	444.503	413.22	-0	0	0	-386.925	311.683	339.729	-525.739	337.231	408.38	-0	0	0	-0	0	0	-253.487	307.27	383.796	-364.44	31.3689	391.07	-316.589	94.40300000000001	443.14	-304.948	97.5699	326.491	-258.492	199.039	335.335	-369.646	181.752	381.657	-339.803	59.8342	435.176	-332.613	59.3237	342.84	-802.929	75.88500000000001	573.3150000000001	-1101.48	71.9242	581.369	-1023.1	48.7229	529.1	-1009.37	51.287	642.727	-900.796	43.7138	632.699	-965.6130000000001	134.871	579.5700000000001	-1065.28	53.0236	536.14	-1063.1	54.6052	633.888	-0	0	0	-621.365	1014.54	499.987	-200	0	0	-0	0	200	-0	200	0	
1313	10.941667	-915.582	1348.09	512.501	-766.155	1443.74	492.172	-879.338	1397.01	342.904	-816.188	1390.67	676.013	-922.705	1181.36	506.455	-660.174	1263.84	489.219	-815.63	958.355	351.475	-818.597	957.686	626.885	-620.083	1017.48	462.462	-622.7619999999999	1014.9	539.1559999999999	-625.5839999999999	1066.17	497.367	-974.3049999999999	1102.01	248.704	-0	0	0	-0	0	0	-0	0	0	-1176.96	948.468	343.07	-1151	940.547	380.448	-1156.45	923.463	307.088	-717.831	1068.32	769.977	-0	0	0	-0	0	0	-0	0	0	-725.759	798.617	779.1079999999999	-682.432	818.52	788.752	-733.824	813.3680000000001	735.289	-806.0119999999999	804.364	657.981	-915.981	610.508	597.859	-926.822	704.7380000000001	578.231	-0	0	0	-0	0	0	-973.47	537.116	532.218	-915.903	460.844	610.091	-877.111	192.456	621.212	-922.157	314.344	541.796	-0	0	0	-0	0	0	-704.079	779.7380000000001	323.308	-679.508	565.399	356.398	-775.953	610.664	398.463	-0	0	0	-0	0	0	-729.763	445.484	413.956	-0	0	0	-395.37	315.662	339.939	-534.321	339.497	408.766	-0	0	0	-0	0	0	-263.535	314.274	386.209	-364.527	33.7887	388.931	-321.066	99.0244	442.546	-306.908	103.498	326.219	-263.833	206.354	336.809	-375.561	185.061	380.506	-342.553	63.3676	433.415	-333.026	63.8415	341.363	-792.809	75.91889999999999	573.395	-1091.41	71.68680000000001	581.425	-1012.92	48.5141	529.0309999999999	-999.275	51.1218	642.667	-890.659	43.739	632.644	-955.629	134.761	579.522	-1055.2	52.8275	536.235	-1052.94	54.3679	633.853	-0	0	0	-621.423	1016.19	500.809	-200	0	0	-0	0	200	-0	200	0	
1314	10.95	-915.203	1350.35	513.13	-765.8630000000001	1445.82	492.732	-879.187	1399.25	343.512	-816	1392.61	676.485	-922.2140000000001	1182.83	506.582	-659.971	1265.82	489.723	-816.181	960.0069999999999	353.212	-818.168	960.229	628.691	-620.159	1019.22	463.313	-622.5549999999999	1016.78	540.048	-625.4400000000001	1067.97	498.108	-975.091	1104.21	249.956	-0	0	0	-0	0	0	-0	0	0	-1177.68	949.191	343.042	-1151.73	941.519	380.628	-1156.74	924.465	307.261	-722.374	1069.22	771.425	-0	0	0	-0	0	0	-0	0	0	-734.76	799.545	779.853	-691.471	818.732	790.1079999999999	-741.369	814.383	734.53	-804.1799999999999	805.297	659.528	-909.812	609.193	599.912	-922.255	704.691	581.894	-0	0	0	-0	0	0	-968.41	536.227	533.652	-909.234	460.423	611.3099999999999	-867.833	192.423	621.3680000000001	-914.49	314.083	542.272	-0	0	0	-0	0	0	-707.981	781.029	324.575	-687.933	566.097	356.877	-783.1180000000001	613.093	399.334	-0	0	0	-0	0	0	-739.758	446.569	414.776	-0	0	0	-403.697	319.653	340.271	-542.953	341.914	409.156	-0	0	0	-0	0	0	-272.339	319.784	388.929	-370.555	37.9993	386.437	-329.169	103.259	440.926	-311.494	109.294	325.151	-270.217	212.444	338.398	-382.797	189.32	378.241	-349.904	67.5014	431.416	-338.009	69.0274	339.685	-782.706	75.9522	573.415	-1081.3	71.5736	581.417	-1002.79	48.3016	529.087	-989.141	50.9876	642.72	-880.569	43.7562	632.669	-945.638	134.653	579.525	-1045.05	52.5701	536.72	-1042.92	54.4055	634.0309999999999	-0	0	0	-621.357	1018	501.68	-200	0	0	-0	0	200	-0	200	0	
